<svg xmlns="http://www.w3.org/2000/svg" width="192" height="192" viewBox="0 0 192 192">
  <defs>
    <linearGradient id="bg192" x1="0%" y1="0%" x2="100%" y2="100%">
      <stop offset="0%" stop-color="#0374B5"/>
      <stop offset="100%" stop-color="#0081CB"/>
    </linearGradient>
  </defs>
  <rect width="192" height="192" rx="40" fill="url(#bg192)"/>
  <g transform="translate(48, 48)" fill="none" stroke="white" stroke-width="5" stroke-linecap="round" stroke-linejoin="round">
    <path d="M15 6h.01"/>
    <path d="M17 18h.01"/>
    <path d="M10 20h4"/>
    <path d="M9 16c-1.6 0-3-1.3-3-3s1.4-3 3-3 3 1.3 3 3-1.4 3-3 3"/>
    <path d="M15 13c1.6 0 3-1.3 3-3s-1.4-3-3-3-3 1.3-3 3 1.4 3 3 3"/>
    <path d="M13 16h3"/>
  </g>
  <path d="M72 126h-18V72h18v54z" fill="white" opacity="0.8"/>
</svg>
