<svg xmlns="http://www.w3.org/2000/svg" width="128" height="128" viewBox="0 0 128 128">
  <rect width="128" height="128" rx="28" fill="#0374B5"/>
  <g transform="translate(32, 32)" fill="none" stroke="white" stroke-width="3.5" stroke-linecap="round" stroke-linejoin="round">
    <path d="M15 6h.01"/>
    <path d="M17 18h.01"/>
    <path d="M10 20h4"/>
    <path d="M9 16c-1.6 0-3-1.3-3-3s1.4-3 3-3 3 1.3 3 3-1.4 3-3 3"/>
    <path d="M15 13c1.6 0 3-1.3 3-3s-1.4-3-3-3-3 1.3-3 3 1.4 3 3 3"/>
    <path d="M13 16h3"/>
  </g>
  <path d="M48 84h-12V48h12v36z" fill="white" opacity="0.8"/>
</svg>
