<svg xmlns="http://www.w3.org/2000/svg" width="384" height="384" viewBox="0 0 384 384">
  <defs>
    <linearGradient id="bg384" x1="0%" y1="0%" x2="100%" y2="100%">
      <stop offset="0%" stop-color="#0374B5"/>
      <stop offset="100%" stop-color="#0081CB"/>
    </linearGradient>
  </defs>
  <rect width="384" height="384" rx="80" fill="url(#bg384)"/>
  <g transform="translate(96, 96)" fill="none" stroke="white" stroke-width="10" stroke-linecap="round" stroke-linejoin="round">
    <path d="M15 6h.01"/>
    <path d="M17 18h.01"/>
    <path d="M10 20h4"/>
    <path d="M9 16c-1.6 0-3-1.3-3-3s1.4-3 3-3 3 1.3 3 3-1.4 3-3 3"/>
    <path d="M15 13c1.6 0 3-1.3 3-3s-1.4-3-3-3-3 1.3-3 3 1.4 3 3 3"/>
    <path d="M13 16h3"/>
  </g>
  <path d="M144 252h-36V144h36v108z" fill="white" opacity="0.8"/>
</svg>
