<svg xmlns="http://www.w3.org/2000/svg" width="512" height="512" viewBox="0 0 512 512">
  <defs>
    <linearGradient id="bg512" x1="0%" y1="0%" x2="100%" y2="100%">
      <stop offset="0%" stop-color="#0374B5"/>
      <stop offset="100%" stop-color="#0081CB"/>
    </linearGradient>
  </defs>
  <rect width="512" height="512" rx="100" fill="url(#bg512)"/>
  <g transform="translate(128, 128)" fill="none" stroke="white" stroke-width="14" stroke-linecap="round" stroke-linejoin="round">
    <path d="M15 6h.01"/>
    <path d="M17 18h.01"/>
    <path d="M10 20h4"/>
    <path d="M9 16c-1.6 0-3-1.3-3-3s1.4-3 3-3 3 1.3 3 3-1.4 3-3 3"/>
    <path d="M15 13c1.6 0 3-1.3 3-3s-1.4-3-3-3-3 1.3-3 3 1.4 3 3 3"/>
    <path d="M13 16h3"/>
  </g>
  <path d="M192 336h-48V192h48v144z" fill="white" opacity="0.8"/>
</svg>
